<svg width="197" height="198" viewBox="0 0 197 198" fill="none" xmlns="http://www.w3.org/2000/svg">
<path d="M98.5078 98.9919V1.5C152.351 1.5 196 45.1486 196 98.9919C196 116.105 191.495 132.917 182.938 147.738L98.5078 98.9919Z" fill="#0E2780" stroke="white" stroke-width="1.56"/>
<path d="M98.5082 98.9919L182.939 147.738C156.017 194.368 96.3919 210.344 49.7622 183.422C3.13257 156.501 -12.8439 96.8756 14.0777 50.246C31.493 20.0819 63.6777 1.5 98.5082 1.5V98.9919Z" fill="#6889FF" stroke="white" stroke-width="0.974919"/>
<path d="M100.387 96.0768L182.932 147.951C153.166 195.317 92.0786 210.49 46.4899 181.841C32.0002 172.735 20.256 159.827 12.4379 144.414L100.387 96.0768Z" fill="#1D4EFF" stroke="white" stroke-width="1.56"/>
<circle cx="98.5" cy="99" r="58.5" fill="white"/>
</svg>
