<svg width="23" height="23" viewBox="0 0 23 23" fill="none" xmlns="http://www.w3.org/2000/svg">
<path d="M15.176 7.67925V4.39999C15.176 3.62056 15.176 3.23085 15.0118 2.99135C14.8684 2.7821 14.6462 2.63996 14.3961 2.5974C14.1099 2.54868 13.756 2.712 13.0483 3.03862L4.73575 6.87521C4.1046 7.1665 3.78902 7.31215 3.55789 7.53804C3.35356 7.73774 3.19758 7.98151 3.10189 8.25073C2.99365 8.55525 2.99365 8.90281 2.99365 9.59794V14.239M15.6446 13.7704H15.654M2.99365 10.678L2.99365 16.8629C2.99365 17.9125 2.99365 18.4374 3.19793 18.8383C3.37762 19.1909 3.66433 19.4777 4.01699 19.6574C4.41791 19.8616 4.94273 19.8616 5.99239 19.8616H16.8628C17.9125 19.8616 18.4373 19.8616 18.8382 19.6574C19.1909 19.4777 19.4776 19.1909 19.6573 18.8383C19.8616 18.4374 19.8616 17.9125 19.8616 16.8629V10.678C19.8616 9.62833 19.8616 9.10351 19.6573 8.70259C19.4776 8.34993 19.1909 8.06322 18.8382 7.88353C18.4373 7.67925 17.9125 7.67925 16.8628 7.67925L5.99239 7.67925C4.94274 7.67925 4.41791 7.67925 4.01699 7.88353C3.66433 8.06321 3.37762 8.34993 3.19793 8.70259C2.99365 9.1035 2.99365 9.62833 2.99365 10.678ZM16.1131 13.7704C16.1131 14.0292 15.9034 14.239 15.6446 14.239C15.3858 14.239 15.176 14.0292 15.176 13.7704C15.176 13.5117 15.3858 13.3019 15.6446 13.3019C15.9034 13.3019 16.1131 13.5117 16.1131 13.7704Z" stroke="#5575E2" stroke-width="1.87421" stroke-linecap="round" stroke-linejoin="round"/>
</svg>
