<svg width="23" height="23" viewBox="0 0 23 23" fill="none" xmlns="http://www.w3.org/2000/svg">
<path d="M17.9875 9.55345L4.86799 9.55344M17.9875 9.55345L19.7344 12.465C20.1259 13.1175 20.3216 13.4437 20.4233 13.7949C20.5134 14.1061 20.549 14.4306 20.5286 14.7539C20.5055 15.1188 20.3852 15.4797 20.1446 16.2016L19.9498 16.7859C19.5811 17.8919 19.3968 18.4449 19.0549 18.8538C18.753 19.2148 18.3652 19.4943 17.9273 19.6665C17.4313 19.8616 16.8484 19.8616 15.6825 19.8616L7.17293 19.8616C6.00711 19.8616 5.42419 19.8616 4.9282 19.6665C4.49021 19.4943 4.10248 19.2148 3.80056 18.8538C3.45865 18.4449 3.27432 17.8919 2.90565 16.7859L2.71089 16.2016C2.47026 15.4797 2.34994 15.1188 2.32688 14.7539C2.30645 14.4306 2.34207 14.1061 2.43215 13.7949C2.53381 13.4437 2.72957 13.1175 3.12108 12.465L4.86799 9.55344M17.9875 9.55345L18.3785 8.18485C18.5639 7.53601 18.6566 7.21159 18.5838 6.95492C18.52 6.73008 18.3745 6.5372 18.1758 6.4141C17.949 6.27357 17.6116 6.27357 16.9368 6.27357L5.91864 6.27357C5.24383 6.27357 4.90643 6.27357 4.67964 6.4141C4.48098 6.53719 4.33548 6.73008 4.2717 6.95492C4.19888 7.21159 4.29158 7.53601 4.47696 8.18485L4.86799 9.55344M11.4277 6.27357H8.11439C7.62619 6.27357 7.15799 6.07611 6.81279 5.72463C6.46758 5.37314 6.27365 4.89643 6.27365 4.39936C6.27365 3.90229 6.46758 3.42557 6.81279 3.07409C7.15799 2.72261 7.62619 2.52515 8.11439 2.52515C10.6914 2.52515 11.4277 6.27357 11.4277 6.27357ZM11.4277 6.27357H14.7411C15.2293 6.27357 15.6975 6.07611 16.0427 5.72463C16.3879 5.37314 16.5818 4.89643 16.5818 4.39936C16.5818 3.90229 16.3879 3.42557 16.0427 3.07409C15.6975 2.72261 15.2293 2.52515 14.7411 2.52515C12.164 2.52515 11.4277 6.27357 11.4277 6.27357Z" stroke="#259CB2" stroke-width="1.87421" stroke-linecap="round" stroke-linejoin="round"/>
</svg>
