<svg width="25" height="24" viewBox="0 0 25 24" fill="none" xmlns="http://www.w3.org/2000/svg">
<path d="M12.541 2H15.241C16.9212 2 17.7613 2 18.403 2.32698C18.9675 2.6146 19.4264 3.07354 19.714 3.63803C20.041 4.27976 20.041 5.11984 20.041 6.8V17.2C20.041 18.8802 20.041 19.7202 19.714 20.362C19.4264 20.9265 18.9675 21.3854 18.403 21.673C17.7613 22 16.9212 22 15.241 22H8.84102C7.16086 22 6.32078 22 5.67904 21.673C5.11456 21.3854 4.65562 20.9265 4.368 20.362C4.04102 19.7202 4.04102 18.8802 4.04102 17.2V16.5M16.041 13H11.541M16.041 9H12.541M16.041 17H8.04102M6.04102 10V4.5C6.04102 3.67157 6.71259 3 7.54102 3C8.36944 3 9.04102 3.67157 9.04102 4.5V10C9.04102 11.6569 7.69787 13 6.04102 13C4.38416 13 3.04102 11.6569 3.04102 10V6" stroke="#5575E2" stroke-width="2" stroke-linecap="round" stroke-linejoin="round"/>
</svg>
