<svg width="24" height="23" viewBox="0 0 24 23" fill="none" xmlns="http://www.w3.org/2000/svg">
<path d="M3.56495 7.19456L7.5833 10.0648C7.7924 10.2141 7.89694 10.2888 8.00636 10.306C8.10264 10.3211 8.20124 10.3059 8.28844 10.2623C8.38754 10.2129 8.46462 10.1101 8.61879 9.90453L9.46791 8.77237C9.5115 8.71424 9.5333 8.68517 9.55892 8.6601C9.58167 8.63783 9.60663 8.61795 9.63342 8.60075C9.66358 8.58137 9.69678 8.56662 9.76318 8.5371L13.3885 6.92587C13.5387 6.85908 13.6139 6.82568 13.6705 6.77353C13.7207 6.7274 13.7601 6.67089 13.7862 6.60795C13.8156 6.5368 13.8211 6.45475 13.832 6.29067L14.0975 2.30904M13.3334 12.8333L15.7848 13.8839C16.0693 14.0058 16.2115 14.0668 16.2868 14.168C16.3529 14.2568 16.3854 14.3662 16.3786 14.4767C16.3708 14.6026 16.285 14.7314 16.1133 14.9889L14.9616 16.7165C14.8802 16.8385 14.8395 16.8995 14.7858 16.9437C14.7382 16.9828 14.6834 17.0122 14.6244 17.0301C14.5578 17.0503 14.4845 17.0503 14.3378 17.0503H12.468C12.2737 17.0503 12.1766 17.0503 12.0939 17.0178C12.0209 16.9891 11.9563 16.9425 11.906 16.8823C11.849 16.8142 11.8183 16.722 11.7568 16.5377L11.0888 14.5336C11.0526 14.4248 11.0344 14.3705 11.0297 14.3152C11.0254 14.2662 11.0289 14.2169 11.0401 14.169C11.0526 14.115 11.0782 14.0637 11.1295 13.9612L11.6369 12.9463C11.74 12.7401 11.7916 12.637 11.871 12.573C11.941 12.5166 12.0257 12.4815 12.1151 12.4719C12.2165 12.461 12.3258 12.4975 12.5445 12.5704L13.3334 12.8333ZM21.2988 11.4276C21.2988 16.6031 17.1032 20.7987 11.9277 20.7987C6.75221 20.7987 2.55664 16.6031 2.55664 11.4276C2.55664 6.25215 6.75221 2.05658 11.9277 2.05658C17.1032 2.05658 21.2988 6.25215 21.2988 11.4276Z" stroke="#5575E2" stroke-width="1.87421" stroke-linecap="round" stroke-linejoin="round"/>
</svg>
