<svg width="161" height="35" viewBox="0 0 161 35" fill="none" xmlns="http://www.w3.org/2000/svg">
<path fill-rule="evenodd" clip-rule="evenodd" d="M28.0252 31.9017C32.4788 30.7156 35.1184 26.153 33.9209 21.7108C32.7233 17.2686 28.1421 14.629 23.6885 15.8151C23.4394 15.8814 23.196 15.9583 22.9587 16.0452L22.9511 16.0171L15.6243 17.9688L19.9586 34.0496L27.2854 32.0979L27.2767 32.0653C27.5262 32.0225 27.7759 31.9681 28.0252 31.9017Z" fill="#1D4EFF"/>
<g filter="url(#filter0_d_16608_15083)">
<path fill-rule="evenodd" clip-rule="evenodd" d="M19.4014 23.2394C23.8551 22.0533 26.4946 17.4907 25.2971 13.0485C24.0995 8.60628 19.5183 5.9667 15.0647 7.1528C14.8156 7.21913 14.5722 7.29603 14.3348 7.38287L14.3273 7.35476L7.00042 9.30645L11.3347 25.3873L18.6615 23.4356L18.6528 23.403C18.9023 23.3602 19.1521 23.3058 19.4014 23.2394Z" fill="#436CFF"/>
</g>
<path d="M45.624 25.5281V11.2281H51.244C54.364 11.2281 55.984 12.5081 55.984 14.9481V15.0281C55.984 16.5281 55.264 17.6281 53.664 18.0881C55.524 18.4681 56.524 19.5281 56.524 21.4481V21.5281C56.524 24.1481 54.804 25.5281 51.504 25.5281H45.624ZM48.784 23.2881H51.004C52.604 23.2881 53.324 22.5681 53.324 21.2681V21.1881C53.324 19.8681 52.604 19.1881 50.844 19.1881H48.784V23.2881ZM48.784 17.1081H50.724C52.284 17.1081 52.904 16.5481 52.904 15.2681V15.1881C52.904 13.9881 52.224 13.4481 50.704 13.4481H48.784V17.1081ZM58.8076 25.5281V11.2281H63.7476C67.2276 11.2281 69.2076 12.7681 69.2076 15.7881V15.8681C69.2076 18.8881 67.1076 20.3281 63.8476 20.3281H62.0276V25.5281H58.8076ZM62.0276 18.0681H63.6676C65.2476 18.0681 66.0876 17.3081 66.0876 15.8881V15.8081C66.0876 14.2881 65.2076 13.6881 63.6676 13.6881H62.0276V18.0681ZM73.5941 25.7481C71.6941 25.7481 70.0941 24.8281 70.0941 22.6281C70.0941 20.1881 72.3341 19.2681 75.5341 19.2681H76.7141V18.8481C76.7141 17.6081 76.3341 16.9281 75.0141 16.9281C73.8741 16.9281 73.3541 17.5081 73.2341 18.4081H70.4941C70.6741 15.9281 72.6341 14.8281 75.1941 14.8281C77.7541 14.8281 79.5741 15.8681 79.5741 18.7081V25.5281H76.7541V24.2681C76.1541 25.1081 75.2341 25.7481 73.5941 25.7481ZM74.4541 23.7281C75.7341 23.7281 76.7141 23.0281 76.7141 21.8681V20.9881H75.5941C73.9141 20.9881 72.9341 21.3481 72.9341 22.4681C72.9341 23.2281 73.3941 23.7281 74.4541 23.7281ZM83.0902 29.0881L84.9302 24.4681L80.7702 15.0681H83.8902L86.4302 21.3481L88.7702 15.0681H91.5502L85.8902 29.0881H83.0902ZM96.6915 25.5281L101.391 11.2281H105.611L110.251 25.5281H106.871L105.891 22.3481H100.711L99.7315 25.5281H96.6915ZM103.311 13.8681L101.411 20.0481H105.191L103.311 13.8681ZM115.671 25.7481C113.131 25.7481 111.131 23.9281 111.131 20.4481V20.2881C111.131 16.8481 113.111 14.8281 115.731 14.8281C117.411 14.8281 118.451 15.5681 119.031 16.6281V10.3281H121.911V25.5281H119.031V23.7881C118.491 24.8481 117.211 25.7481 115.671 25.7481ZM116.531 23.4881C118.051 23.4881 119.111 22.4681 119.111 20.3481V20.1881C119.111 18.1081 118.191 17.0481 116.611 17.0481C114.991 17.0481 114.091 18.1481 114.091 20.2281V20.3881C114.091 22.4681 115.091 23.4881 116.531 23.4881ZM124.485 25.5281V15.0681H127.385V16.6681C127.905 15.6881 129.025 14.8281 130.585 14.8281C131.965 14.8281 133.005 15.4081 133.505 16.6481C134.345 15.3881 135.705 14.8281 137.025 14.8281C138.965 14.8281 140.465 16.0481 140.465 18.8281V25.5281H137.585V19.1481C137.585 17.8081 136.985 17.2081 135.945 17.2081C134.825 17.2081 133.925 17.9281 133.925 19.3481V25.5281H131.045V19.1481C131.045 17.8081 130.425 17.2081 129.405 17.2081C128.285 17.2081 127.385 17.9281 127.385 19.3481V25.5281H124.485ZM143.022 25.5281V15.0681H145.902V25.5281H143.022ZM144.442 13.6481C143.522 13.6481 142.802 12.9681 142.802 12.0681C142.802 11.1681 143.522 10.4881 144.442 10.4881C145.382 10.4881 146.102 11.1681 146.102 12.0681C146.102 12.9681 145.382 13.6481 144.442 13.6481ZM148.567 25.5281V15.0681H151.467V16.7281C151.987 15.6881 153.127 14.8281 154.867 14.8281C156.927 14.8281 158.387 16.0681 158.387 18.8681V25.5281H155.487V19.2881C155.487 17.8681 154.927 17.1881 153.647 17.1881C152.407 17.1881 151.467 17.9481 151.467 19.4881V25.5281H148.567Z" fill="#1D4EFF"/>
<defs>
<filter id="filter0_d_16608_15083" x="0.0344763" y="0.0636648" width="32.517" height="32.4501" filterUnits="userSpaceOnUse" color-interpolation-filters="sRGB">
<feFlood flood-opacity="0" result="BackgroundImageFix"/>
<feColorMatrix in="SourceAlpha" type="matrix" values="0 0 0 0 0 0 0 0 0 0 0 0 0 0 0 0 0 0 127 0" result="hardAlpha"/>
<feOffset dy="0.160658"/>
<feGaussianBlur stdDeviation="3.48294"/>
<feColorMatrix type="matrix" values="0 0 0 0 0.770833 0 0 0 0 0.770833 0 0 0 0 0.770833 0 0 0 0.1 0"/>
<feBlend mode="normal" in2="BackgroundImageFix" result="effect1_dropShadow_16608_15083"/>
<feBlend mode="normal" in="SourceGraphic" in2="effect1_dropShadow_16608_15083" result="shape"/>
</filter>
</defs>
</svg>
