<svg width="37" height="37" viewBox="0 0 37 37" fill="none" xmlns="http://www.w3.org/2000/svg">
<path d="M18.4997 33.9166C27.0141 33.9166 33.9163 27.0143 33.9163 18.4999C33.9163 9.98553 27.0141 3.08325 18.4997 3.08325C9.98528 3.08325 3.08301 9.98553 3.08301 18.4999C3.08301 27.0143 9.98528 33.9166 18.4997 33.9166Z" stroke="#344054" stroke-width="3.13472" stroke-linecap="round" stroke-linejoin="round"/>
<path fill-rule="evenodd" clip-rule="evenodd" d="M18.4944 13.9796C16.9532 12.1779 14.3832 11.6932 12.4523 13.3431C10.5213 14.9929 10.2494 17.7514 11.7658 19.7027C12.7371 20.9526 15.2245 23.2702 16.8875 24.7751C17.4401 25.2751 17.7164 25.5252 18.0473 25.6255C18.3318 25.7117 18.657 25.7117 18.9415 25.6255C19.2724 25.5252 19.5487 25.2751 20.1013 24.7751C21.7643 23.2702 24.2517 20.9526 25.223 19.7027C26.7394 17.7514 26.5007 14.9756 24.5365 13.3431C22.5724 11.7105 20.0356 12.1779 18.4944 13.9796Z" stroke="#344054" stroke-width="3.13472" stroke-linecap="round" stroke-linejoin="round"/>
</svg>
