<svg width="112" height="102" viewBox="0 0 112 102" fill="none" xmlns="http://www.w3.org/2000/svg">
<path d="M102.602 133C113.243 133 118.563 133 122.628 130.929C126.203 129.107 129.109 126.201 130.931 122.626C133.002 118.561 133.002 113.241 133.002 102.6V49.3999C133.002 38.7589 133.002 33.4384 130.931 29.3741C129.109 25.799 126.203 22.8924 122.628 21.0708C118.563 18.9999 113.243 18.9999 102.602 18.9999L49.402 18.9999C38.761 18.9999 33.4405 18.9999 29.3761 21.0708C25.8011 22.8924 22.8944 25.799 21.0728 29.3741C19.002 33.4384 19.002 38.7589 19.002 49.3999L19.002 102.6C19.002 113.241 19.002 118.561 21.0728 122.626C22.8944 126.201 25.8011 129.107 29.3761 130.929C33.4405 133 38.761 133 49.402 133H102.602Z" stroke="#FEDF89" stroke-width="12.8778" stroke-linecap="round" stroke-linejoin="round"/>
<path d="M86.9685 83.5663C86.5217 82.2259 86.2983 81.5557 86.3099 81.0075C86.3222 80.4309 86.3993 80.1286 86.6648 79.6167C86.9173 79.1299 87.5922 78.5018 88.9422 77.2456C92.6701 73.7766 95.002 68.8272 95.002 63.3332C95.002 52.8398 86.4954 44.3332 76.002 44.3332C65.5085 44.3332 57.002 52.8398 57.002 63.3332C57.002 68.8272 59.3338 73.7766 63.0617 77.2456C64.4117 78.5018 65.0867 79.1299 65.3391 79.6167C65.6046 80.1286 65.6817 80.4309 65.694 81.0075C65.7056 81.5557 65.4822 82.2259 65.0354 83.5663L59.2249 100.998C58.4744 103.249 58.0991 104.375 58.3241 105.271C58.5211 106.056 59.0107 106.735 59.6926 107.17C60.4716 107.667 61.6582 107.667 64.0316 107.667H87.9723C90.3457 107.667 91.5324 107.667 92.3113 107.17C92.9932 106.735 93.4828 106.056 93.6798 105.271C93.9048 104.375 93.5295 103.249 92.779 100.998L86.9685 83.5663Z" stroke="#FEDF89" stroke-width="12.8778" stroke-linecap="round" stroke-linejoin="round"/>
</svg>
