<svg width="112" height="94" viewBox="0 0 112 94" fill="none" xmlns="http://www.w3.org/2000/svg">
<path d="M131.081 71.5001H119.164M131.081 71.5001C131.081 104.407 104.404 131.083 71.4974 131.083M131.081 71.5001C131.081 38.5931 104.404 11.9167 71.4974 11.9167M113.629 113.632L105.203 105.206M23.8307 71.5001H11.9141M11.9141 71.5001C11.9141 104.407 38.5904 131.083 71.4974 131.083M11.9141 71.5001C11.9141 38.5931 38.5904 11.9167 71.4974 11.9167M37.792 37.7947L29.3656 29.3683M71.4974 23.8334V11.9167M105.203 37.7947L113.629 29.3683M71.4974 131.083V119.167M29.3656 113.632L37.792 105.206M71.4974 47.6667L95.3307 71.5001L71.4974 95.3334L47.6641 71.5001L71.4974 47.6667Z" stroke="#B4C4FF" stroke-width="12.1153" stroke-linecap="round" stroke-linejoin="round"/>
</svg>
