<svg width="37" height="37" viewBox="0 0 37 37" fill="none" xmlns="http://www.w3.org/2000/svg">
<path d="M24.975 32.375C27.5652 32.375 28.8604 32.375 29.8497 31.8709C30.72 31.4275 31.4275 30.72 31.8709 29.8497C32.375 28.8604 32.375 27.5652 32.375 24.975V12.025C32.375 9.43476 32.375 8.13964 31.8709 7.1503C31.4275 6.28005 30.72 5.57251 29.8497 5.1291C28.8604 4.625 27.5652 4.625 24.975 4.625L12.025 4.625C9.43476 4.625 8.13964 4.625 7.15029 5.12909C6.28004 5.57251 5.57251 6.28004 5.1291 7.15029C4.625 8.13963 4.625 9.43476 4.625 12.025L4.625 24.975C4.625 27.5652 4.625 28.8604 5.12909 29.8497C5.57251 30.7199 6.28004 31.4275 7.15029 31.8709C8.13963 32.375 9.43476 32.375 12.025 32.375H24.975Z" stroke="#344054" stroke-width="3.13472" stroke-linecap="round" stroke-linejoin="round"/>
<path d="M21.1695 20.3418C21.0607 20.0155 21.0064 19.8524 21.0092 19.7189C21.0122 19.5786 21.0309 19.505 21.0956 19.3804C21.157 19.2619 21.3213 19.109 21.6499 18.8032C22.5574 17.9588 23.125 16.754 23.125 15.4167C23.125 12.8623 21.0543 10.7917 18.5 10.7917C15.9457 10.7917 13.875 12.8623 13.875 15.4167C13.875 16.754 14.4426 17.9588 15.3501 18.8032C15.6787 19.109 15.843 19.2619 15.9044 19.3804C15.9691 19.505 15.9878 19.5786 15.9908 19.7189C15.9936 19.8524 15.9393 20.0155 15.8305 20.3418L14.4161 24.585C14.2334 25.1331 14.1421 25.4071 14.1968 25.6252C14.2448 25.8162 14.364 25.9815 14.53 26.0874C14.7196 26.2083 15.0084 26.2083 15.5862 26.2083H21.4138C21.9916 26.2083 22.2804 26.2083 22.47 26.0874C22.636 25.9815 22.7552 25.8162 22.8031 25.6252C22.8579 25.4071 22.7666 25.1331 22.5839 24.585L21.1695 20.3418Z" stroke="#344054" stroke-width="3.13472" stroke-linecap="round" stroke-linejoin="round"/>
</svg>
