<svg width="37" height="37" viewBox="0 0 37 37" fill="none" xmlns="http://www.w3.org/2000/svg">
<path d="M33.9163 18.4999H30.833M33.9163 18.4999C33.9163 27.0143 27.0141 33.9166 18.4997 33.9166M33.9163 18.4999C33.9163 9.98553 27.0141 3.08325 18.4997 3.08325M29.4009 29.4011L27.2207 27.2209M6.16634 18.4999H3.08301M3.08301 18.4999C3.08301 27.0143 9.98528 33.9166 18.4997 33.9166M3.08301 18.4999C3.08301 9.98553 9.98528 3.08325 18.4997 3.08325M9.77869 9.77893L7.59844 7.59869M18.4997 6.16659V3.08325M27.2207 9.77893L29.4009 7.59869M18.4997 33.9166V30.8333M7.59844 29.4011L9.77869 27.2209M18.4997 12.3333L24.6663 18.4999L18.4997 24.6666L12.333 18.4999L18.4997 12.3333Z" stroke="#344054" stroke-width="3.13472" stroke-linecap="round" stroke-linejoin="round"/>
</svg>
