<svg width="15" height="16" viewBox="0 0 15 16" fill="none" xmlns="http://www.w3.org/2000/svg">
<path d="M7.5 8L4.82945 5.77454C4.43266 5.44389 4.23427 5.27856 4.09165 5.0759C3.96528 4.89633 3.87143 4.69596 3.81438 4.48393C3.75 4.24462 3.75 3.98637 3.75 3.46988V1.75M7.5 8L10.1706 5.77454C10.5673 5.44389 10.7657 5.27856 10.9084 5.0759C11.0347 4.89633 11.1286 4.69596 11.1856 4.48393C11.25 4.24462 11.25 3.98637 11.25 3.46988V1.75M7.5 8L4.82945 10.2255C4.43266 10.5561 4.23427 10.7214 4.09165 10.9241C3.96528 11.1037 3.87143 11.304 3.81438 11.5161C3.75 11.7554 3.75 12.0136 3.75 12.5301V14.25M7.5 8L10.1706 10.2255C10.5673 10.5561 10.7657 10.7214 10.9084 10.9241C11.0347 11.1037 11.1286 11.304 11.1856 11.5161C11.25 11.7554 11.25 12.0136 11.25 12.5301V14.25M2.5 1.75H12.5M2.5 14.25H12.5" stroke="#816400" stroke-width="1.25" stroke-linecap="round" stroke-linejoin="round"/>
</svg>
