<svg width="47" height="29" viewBox="0 0 47 29" fill="none" xmlns="http://www.w3.org/2000/svg">
<path d="M14.0704 28.1215C21.8191 28.1215 28.1002 21.8404 28.1002 14.0917C28.1002 6.34299 21.8191 0.0618286 14.0704 0.0618286C6.32169 0.0618286 0.0405273 6.34299 0.0405273 14.0917C0.0405273 21.8404 6.32169 28.1215 14.0704 28.1215Z" fill="#009393"/>
<path fill-rule="evenodd" clip-rule="evenodd" d="M20.893 7.67804V10.236H15.7708V12.0095C19.3683 12.199 22.0673 12.9774 22.0873 13.9104L22.0872 15.8555C22.0672 16.7885 19.3683 17.5668 15.7708 17.7564V22.1088H12.3697V17.7564C8.77221 17.5668 6.0732 16.7885 6.05322 15.8555L6.05329 13.9104C6.07333 12.9774 8.77221 12.199 12.3697 12.0095V10.236H7.24754V7.67804H20.893ZM14.0703 16.4201C17.9093 16.4201 21.1182 15.762 21.9035 14.883C21.2376 14.1376 18.8288 13.5509 15.7708 13.3898V15.2467C15.2228 15.2756 14.6538 15.2908 14.0703 15.2908C13.4867 15.2908 12.9178 15.2756 12.3697 15.2467V13.3898C9.31169 13.5509 6.90295 14.1376 6.23702 14.883C7.0223 15.762 10.2312 16.4201 14.0703 16.4201Z" fill="white"/>
<g clip-path="url(#clip0_16696_41863)">
<path d="M32.9703 28.2388C40.7188 28.2388 47.0001 21.9574 47.0001 14.2089C47.0001 6.46045 40.7188 0.179077 32.9703 0.179077C25.2218 0.179077 18.9404 6.46045 18.9404 14.2089C18.9404 21.9574 25.2218 28.2388 32.9703 28.2388Z" fill="#F0F0F0"/>
<path d="M21.8405 5.66742C20.7384 7.10126 19.9074 8.75388 19.4236 10.5492H26.7223L21.8405 5.66742Z" fill="#0052B4"/>
<path d="M46.5166 10.5492C46.0327 8.75394 45.2017 7.10132 44.0997 5.66748L39.218 10.5492H46.5166Z" fill="#0052B4"/>
<path d="M19.4236 17.8691C19.9075 19.6644 20.7385 21.317 21.8405 22.7508L26.7221 17.8691H19.4236Z" fill="#0052B4"/>
<path d="M41.5116 3.07951C40.0778 1.97745 38.4252 1.14646 36.6299 0.662537V7.96118L41.5116 3.07951Z" fill="#0052B4"/>
<path d="M24.4282 25.3387C25.8621 26.4407 27.5147 27.2717 29.31 27.7556V20.457L24.4282 25.3387Z" fill="#0052B4"/>
<path d="M29.3099 0.662537C27.5146 1.14646 25.862 1.97745 24.4282 3.07945L29.3099 7.96113V0.662537Z" fill="#0052B4"/>
<path d="M36.6299 27.7556C38.4252 27.2717 40.0778 26.4407 41.5116 25.3387L36.6299 20.457V27.7556Z" fill="#0052B4"/>
<path d="M39.218 17.8691L44.0997 22.7509C45.2017 21.3171 46.0327 19.6644 46.5166 17.8691H39.218Z" fill="#0052B4"/>
<path d="M46.8814 12.379H34.8004H34.8003V0.297838C34.2012 0.219851 33.5905 0.179077 32.9703 0.179077C32.35 0.179077 31.7393 0.219851 31.1403 0.297838V12.3789V12.3789H19.0592C18.9812 12.978 18.9404 13.5887 18.9404 14.2089C18.9404 14.8293 18.9812 15.4399 19.0592 16.0389H31.1402H31.1403V28.12C31.7393 28.198 32.35 28.2388 32.9703 28.2388C33.5905 28.2388 34.2012 28.1981 34.8002 28.12V16.039V16.0389H46.8814C46.9594 15.4399 47.0001 14.8293 47.0001 14.2089C47.0001 13.5887 46.9594 12.978 46.8814 12.379Z" fill="#D80027"/>
<path d="M36.6299 17.869L42.8905 24.1296C43.1784 23.8418 43.4531 23.5409 43.7152 23.2289L38.3552 17.869H36.6299V17.869Z" fill="#D80027"/>
<path d="M29.3102 17.869H29.3101L23.0496 24.1295C23.3374 24.4174 23.6383 24.6921 23.9503 24.9542L29.3102 19.5941V17.869Z" fill="#D80027"/>
<path d="M29.3101 10.549V10.5489L23.0495 4.28827C22.7616 4.5761 22.4869 4.87703 22.2249 5.18897L27.5849 10.549H29.3101V10.549Z" fill="#D80027"/>
<path d="M36.6299 10.5491L42.8905 4.28838C42.6027 4.00044 42.3018 3.72576 41.9898 3.46375L36.6299 8.82375V10.5491Z" fill="#D80027"/>
</g>
<defs>
<clipPath id="clip0_16696_41863">
<rect width="28.0597" height="28.0597" fill="white" transform="translate(18.9402 0.179077)"/>
</clipPath>
</defs>
</svg>
