<svg width="47" height="29" viewBox="0 0 47 29" fill="none" xmlns="http://www.w3.org/2000/svg">
<path d="M14.0704 28.1813C21.8191 28.1813 28.1002 21.9001 28.1002 14.1514C28.1002 6.40272 21.8191 0.121552 14.0704 0.121552C6.32169 0.121552 0.0405273 6.40272 0.0405273 14.1514C0.0405273 21.9001 6.32169 28.1813 14.0704 28.1813Z" fill="#009393"/>
<path fill-rule="evenodd" clip-rule="evenodd" d="M20.893 7.73776V10.2957H15.7708V12.0692C19.3683 12.2588 22.0673 13.0372 22.0873 13.9701L22.0872 15.9152C22.0672 16.8482 19.3683 17.6266 15.7708 17.8161V22.1685H12.3697V17.8161C8.77221 17.6266 6.0732 16.8482 6.05322 15.9152L6.05329 13.9701C6.07333 13.0372 8.77221 12.2588 12.3697 12.0692V10.2957H7.24754V7.73776H20.893ZM14.0703 16.4799C17.9093 16.4799 21.1182 15.8217 21.9035 14.9427C21.2376 14.1973 18.8288 13.6107 15.7708 13.4495V15.3064C15.2228 15.3353 14.6538 15.3505 14.0703 15.3505C13.4867 15.3505 12.9178 15.3353 12.3697 15.3064V13.4495C9.31169 13.6107 6.90295 14.1973 6.23702 14.9427C7.0223 15.8217 10.2312 16.4799 14.0703 16.4799Z" fill="white"/>
<g clip-path="url(#clip0_16726_42062)">
<path d="M32.97 28.2984C40.7185 28.2984 46.9999 22.017 46.9999 14.2686C46.9999 6.52009 40.7185 0.238708 32.97 0.238708C25.2216 0.238708 18.9402 6.52009 18.9402 14.2686C18.9402 22.017 25.2216 28.2984 32.97 28.2984Z" fill="#F0F0F0"/>
<path d="M32.97 0.238739C27.4077 0.238739 22.6016 3.47574 20.3323 8.16867H45.6076C43.3384 3.47574 38.5322 0.238739 32.97 0.238739Z" fill="black"/>
<path d="M32.97 28.2985C27.4077 28.2985 22.6016 25.0615 20.3323 20.3686H45.6076C43.3384 25.0615 38.5322 28.2985 32.97 28.2985Z" fill="#496E2D"/>
<path d="M46.3374 9.99857H19.6027C19.1729 11.345 18.9402 12.7795 18.9402 14.2685C18.9402 15.7575 19.1729 17.192 19.6027 18.5385H46.3373C46.7671 17.192 46.9999 15.7575 46.9999 14.2685C46.9999 12.7795 46.7671 11.345 46.3374 9.99857Z" fill="#A2001D"/>
<path d="M37.3387 6.7221L35.6772 5.95523L32.97 12.0851L30.2628 5.95523L28.6013 6.7221L31.9623 14.2686L28.6013 21.815L30.2628 22.5819L32.97 16.452L35.6772 22.5819L37.3387 21.815L33.9777 14.2686L37.3387 6.7221Z" fill="#F0F0F0"/>
<path d="M34.0985 7.44484C33.4553 6.74242 32.97 6.33862 32.97 6.33862C32.97 6.33862 32.4847 6.74236 31.8416 7.44484V21.0922C32.4847 21.7947 32.97 22.1985 32.97 22.1985C32.97 22.1985 33.4553 21.7947 34.0985 21.0922V7.44484Z" fill="#F0F0F0"/>
<path d="M29.9199 10.0619V18.475C30.5996 19.6793 31.4315 20.6664 32.0549 21.3209V7.21603C31.4315 7.87045 30.5995 8.85764 29.9199 10.0619Z" fill="#A2001D"/>
<path d="M36.02 10.0619C35.3403 8.85758 34.5085 7.87045 33.885 7.21603V21.3209C34.5084 20.6664 35.3403 19.6793 36.02 18.475V10.0619Z" fill="#A2001D"/>
<path d="M36.0198 10.062V18.4751C36.7078 17.2558 37.2398 15.8139 37.2398 14.2686C37.2398 12.7233 36.7078 11.2814 36.0198 10.062Z" fill="black"/>
<path d="M29.9202 10.062V18.4751C29.2321 17.2558 28.7002 15.8139 28.7002 14.2686C28.7002 12.7233 29.2321 11.2814 29.9202 10.062Z" fill="black"/>
</g>
<defs>
<clipPath id="clip0_16726_42062">
<rect width="28.0597" height="28.0597" fill="white" transform="translate(18.9402 0.2388)"/>
</clipPath>
</defs>
</svg>
