<svg width="47" height="30" viewBox="0 0 47 30" fill="none" xmlns="http://www.w3.org/2000/svg">
<path d="M14.0704 28.9425C21.8191 28.9425 28.1002 22.6613 28.1002 14.9126C28.1002 7.16392 21.8191 0.882751 14.0704 0.882751C6.32169 0.882751 0.0405273 7.16392 0.0405273 14.9126C0.0405273 22.6613 6.32169 28.9425 14.0704 28.9425Z" fill="#009393"/>
<path fill-rule="evenodd" clip-rule="evenodd" d="M20.893 8.49896V11.0569H15.7708V12.8304C19.3683 13.02 22.0673 13.7984 22.0873 14.7313L22.0872 16.6764C22.0672 17.6094 19.3683 18.3878 15.7708 18.5773V22.9297H12.3697V18.5773C8.77221 18.3878 6.0732 17.6094 6.05322 16.6764L6.05329 14.7313C6.07333 13.7984 8.77221 13.02 12.3697 12.8304V11.0569H7.24754V8.49896H20.893ZM14.0703 17.2411C17.9093 17.2411 21.1182 16.5829 21.9035 15.7039C21.2376 14.9585 18.8288 14.3719 15.7708 14.2107V16.0676C15.2228 16.0965 14.6538 16.1117 14.0703 16.1117C13.4867 16.1117 12.9178 16.0965 12.3697 16.0676V14.2107C9.31169 14.3719 6.90295 14.9585 6.23702 15.7039C7.0223 16.5829 10.2312 17.2411 14.0703 17.2411Z" fill="white"/>
<g clip-path="url(#clip0_16696_41766)">
<path d="M32.9703 29.0597C40.7188 29.0597 47.0001 22.7783 47.0001 15.0299C47.0001 7.28138 40.7188 1 32.9703 1C25.2218 1 18.9404 7.28138 18.9404 15.0299C18.9404 22.7783 25.2218 29.0597 32.9703 29.0597Z" fill="#F0F0F0"/>
<path d="M18.9402 15.0298C18.9402 21.0622 22.7475 26.2047 28.0901 28.1871V1.87268C22.7475 3.85495 18.9402 8.99754 18.9402 15.0298Z" fill="#6DA544"/>
<path d="M47 15.0298C47 8.99754 43.1927 3.85495 37.8501 1.87268V28.1871C43.1927 26.2047 47 21.0622 47 15.0298Z" fill="#6DA544"/>
</g>
<defs>
<clipPath id="clip0_16696_41766">
<rect width="28.0597" height="28.0597" fill="white" transform="translate(18.9402 1)"/>
</clipPath>
</defs>
</svg>
