<svg width="47" height="30" viewBox="0 0 47 30" fill="none" xmlns="http://www.w3.org/2000/svg">
<path d="M14.0704 29.0021C21.8191 29.0021 28.1002 22.721 28.1002 14.9723C28.1002 7.22361 21.8191 0.942444 14.0704 0.942444C6.32169 0.942444 0.0405273 7.22361 0.0405273 14.9723C0.0405273 22.721 6.32169 29.0021 14.0704 29.0021Z" fill="#009393"/>
<path fill-rule="evenodd" clip-rule="evenodd" d="M20.893 8.55865V11.1166H15.7708V12.8901C19.3683 13.0797 22.0673 13.858 22.0873 14.791L22.0872 16.7361C22.0672 17.6691 19.3683 18.4475 15.7708 18.637V22.9894H12.3697V18.637C8.77221 18.4475 6.0732 17.6691 6.05322 16.7361L6.05329 14.791C6.07333 13.858 8.77221 13.0797 12.3697 12.8901V11.1166H7.24754V8.55865H20.893ZM14.0703 17.3008C17.9093 17.3008 21.1182 16.6426 21.9035 15.7636C21.2376 15.0182 18.8288 14.4316 15.7708 14.2704V16.1273C15.2228 16.1562 14.6538 16.1714 14.0703 16.1714C13.4867 16.1714 12.9178 16.1562 12.3697 16.1273V14.2704C9.31169 14.4316 6.90295 15.0182 6.23702 15.7636C7.0223 16.6426 10.2312 17.3008 14.0703 17.3008Z" fill="white"/>
<g clip-path="url(#clip0_16696_41836)">
<path d="M32.9703 29.1195C40.7188 29.1195 47.0001 22.8381 47.0001 15.0897C47.0001 7.34119 40.7188 1.05981 32.9703 1.05981C25.2218 1.05981 18.9404 7.34119 18.9404 15.0897C18.9404 22.8381 25.2218 29.1195 32.9703 29.1195Z" fill="#F0F0F0"/>
<path d="M26.8704 19.9695L28.0904 28.2469C29.6102 28.8109 31.2541 29.1194 32.9703 29.1194C39.0026 29.1194 44.1452 25.3121 46.1274 19.9695H26.8704Z" fill="black"/>
<path d="M26.8704 10.2097L28.0904 1.93229C29.6102 1.3683 31.2541 1.05975 32.9703 1.05975C39.0026 1.05975 44.1452 4.8671 46.1274 10.2097H26.8704Z" fill="#6DA544"/>
<path d="M18.9402 15.0896C18.9402 21.1219 22.7476 26.2645 28.0901 28.2468V1.93237C22.7476 3.91469 18.9402 9.05724 18.9402 15.0896Z" fill="#A2001D"/>
</g>
<defs>
<clipPath id="clip0_16696_41836">
<rect width="28.0597" height="28.0597" fill="white" transform="translate(18.9402 1.05969)"/>
</clipPath>
</defs>
</svg>
