<svg width="47" height="29" viewBox="0 0 47 29" fill="none" xmlns="http://www.w3.org/2000/svg">
<path d="M14.0704 28.0618C21.8191 28.0618 28.1002 21.7807 28.1002 14.032C28.1002 6.2833 21.8191 0.00213623 14.0704 0.00213623C6.32169 0.00213623 0.0405273 6.2833 0.0405273 14.032C0.0405273 21.7807 6.32169 28.0618 14.0704 28.0618Z" fill="#009393"/>
<path fill-rule="evenodd" clip-rule="evenodd" d="M20.893 7.61835V10.1763H15.7708V11.9498C19.3683 12.1394 22.0673 12.9177 22.0873 13.8507L22.0872 15.7958C22.0672 16.7288 19.3683 17.5072 15.7708 17.6967V22.0491H12.3697V17.6967C8.77221 17.5072 6.0732 16.7288 6.05322 15.7958L6.05329 13.8507C6.07333 12.9177 8.77221 12.1394 12.3697 11.9498V10.1763H7.24754V7.61835H20.893ZM14.0703 16.3605C17.9093 16.3605 21.1182 15.7023 21.9035 14.8233C21.2376 14.0779 18.8288 13.4912 15.7708 13.3301V15.187C15.2228 15.2159 14.6538 15.2311 14.0703 15.2311C13.4867 15.2311 12.9178 15.2159 12.3697 15.187V13.3301C9.31169 13.4912 6.90295 14.0779 6.23702 14.8233C7.0223 15.7023 10.2312 16.3605 14.0703 16.3605Z" fill="white"/>
<g clip-path="url(#clip0_16696_41852)">
<path d="M32.9698 28.179C40.7183 28.179 46.9996 21.8976 46.9996 14.1491C46.9996 6.40064 40.7183 0.119263 32.9698 0.119263C25.2213 0.119263 18.9399 6.40064 18.9399 14.1491C18.9399 21.8976 25.2213 28.179 32.9698 28.179Z" fill="#F0F0F0"/>
<path d="M32.3601 14.1492H46.9999C46.9999 12.8829 46.8311 11.6562 46.5166 10.4893H32.3601V14.1492Z" fill="#D80027"/>
<path d="M32.3601 6.82936H44.9407C44.0819 5.4279 42.9838 4.18917 41.7034 3.16937H32.3601V6.82936Z" fill="#D80027"/>
<path d="M32.9699 28.1791C36.2718 28.1791 39.3067 27.0379 41.7033 25.1292H24.2366C26.6332 27.0379 29.668 28.1791 32.9699 28.1791Z" fill="#D80027"/>
<path d="M20.9995 21.4691H44.9408C45.6302 20.3441 46.165 19.1143 46.5167 17.8091H19.4236C19.7753 19.1143 20.31 20.3441 20.9995 21.4691Z" fill="#D80027"/>
<path d="M25.4388 2.31022H26.7174L25.5281 3.17421L25.9824 4.57221L24.7932 3.70822L23.604 4.57221L23.9964 3.36449C22.9493 4.2367 22.0316 5.25857 21.2753 6.39718H21.6849L20.9279 6.94714C20.81 7.14389 20.6969 7.34376 20.5884 7.54659L20.9499 8.65917L20.2755 8.16916C20.1079 8.52435 19.9545 8.88754 19.8167 9.25829L20.215 10.4841H21.6849L20.4957 11.3481L20.9499 12.7461L19.7607 11.8821L19.0484 12.3997C18.9771 12.9729 18.9399 13.5566 18.9399 14.1491H32.9698C32.9698 6.40069 32.9698 5.48722 32.9698 0.119263C30.1982 0.119263 27.6146 0.923239 25.4388 2.31022ZM25.9824 12.7461L24.7932 11.8821L23.604 12.7461L24.0583 11.3481L22.869 10.4841H24.339L24.7932 9.08615L25.2474 10.4841H26.7174L25.5281 11.3481L25.9824 12.7461ZM25.5281 7.26117L25.9824 8.65917L24.7932 7.79518L23.604 8.65917L24.0583 7.26117L22.869 6.39718H24.339L24.7932 4.99918L25.2474 6.39718H26.7174L25.5281 7.26117ZM31.0148 12.7461L29.8256 11.8821L28.6364 12.7461L29.0907 11.3481L27.9015 10.4841H29.3714L29.8256 9.08615L30.2798 10.4841H31.7498L30.5605 11.3481L31.0148 12.7461ZM30.5605 7.26117L31.0148 8.65917L29.8256 7.79518L28.6364 8.65917L29.0907 7.26117L27.9015 6.39718H29.3714L29.8256 4.99918L30.2798 6.39718H31.7498L30.5605 7.26117ZM30.5605 3.17421L31.0148 4.57221L29.8256 3.70822L28.6364 4.57221L29.0907 3.17421L27.9015 2.31022H29.3714L29.8256 0.912223L30.2798 2.31022H31.7498L30.5605 3.17421Z" fill="#0052B4"/>
</g>
<defs>
<clipPath id="clip0_16696_41852">
<rect width="28.0597" height="28.0597" fill="white" transform="translate(18.9402 0.119385)"/>
</clipPath>
</defs>
</svg>
